<svg width="383" height="38" viewBox="0 0 383 38" fill="none" xmlns="http://www.w3.org/2000/svg">
<path d="M155.577 0H165.147L152.117 32.4337H141.783L134.19 13.4913L126.597 32.4337H116.263L103.233 0H112.759L121.969 22.8943L130.057 0H138.324L146.411 22.8943L155.577 0Z" fill="#2E2E2E"/>
<path d="M167.167 0H202.078V8.04027H175.659V12.5374H202.078V20.1234H175.659V24.3934H202.078V32.4337H167.167V0Z" fill="#2E2E2E"/>
<path d="M247.635 9.22133C247.635 11.7197 246.646 14.309 244.4 16.2168C246.646 18.1701 247.635 20.7594 247.635 23.2123C247.635 29.9807 242.737 32.4337 237.076 32.4337H206.793V0H237.076C242.737 0 247.635 2.45297 247.635 9.22133ZM215.285 13.2642H236.178C238.02 13.2642 239.143 12.4011 239.143 10.6295C239.143 9.03963 237.975 8.04027 236.357 8.04027H215.285V13.2642ZM236.178 19.2149H215.285V24.3934H236.357C237.975 24.3934 239.143 23.4394 239.143 21.8041C239.143 20.0326 238.02 19.2149 236.178 19.2149Z" fill="#2E2E2E"/>
<path d="M288.422 9.99356C288.422 12.4465 287.343 14.7632 284.513 16.2168C287.343 17.6704 288.422 19.9871 288.422 22.4855C288.422 26.165 287.074 32.4337 273.28 32.4337H267.574C253.781 32.4337 252.388 24.8022 252.388 21.1228H260.925C260.925 22.0767 261.464 24.3025 265.238 24.3025H276.92C279.346 24.3025 279.93 22.9852 279.93 21.8041C279.93 20.4414 279.031 19.2603 276.246 19.2603H264.025V13.1733H276.246C279.031 13.1733 279.93 11.9923 279.93 10.6749C279.93 9.44846 279.346 8.17655 276.92 8.17655H263.845C261.329 8.17655 260.835 8.99421 260.835 10.9021H252.343C252.343 6.26869 253.691 0 267.484 0H273.28C287.074 0 288.422 6.26869 288.422 9.99356Z" fill="#2E2E2E"/>
<path d="M297.871 23.3486C300.477 23.3486 302.634 25.4836 302.634 28.1183C302.634 30.7529 300.477 32.9333 297.871 32.9333C295.265 32.9333 293.154 30.7529 293.154 28.1183C293.154 25.4836 295.265 23.3486 297.871 23.3486Z" fill="#2E2E2E"/>
<path d="M307.331 8.17655V0H339.636V8.17655H327.595V32.4337H319.103V8.17655H307.331Z" fill="#2E2E2E"/>
<path d="M365.595 0C371.391 0 382.533 1.31733 382.533 16.2168C382.533 31.1617 371.391 32.4337 365.595 32.4337H358.631C352.835 32.4337 341.692 31.1617 341.692 16.2168C341.692 1.31733 352.835 0 358.631 0H365.595ZM367.931 24.3025C372.469 24.3025 373.592 20.3505 373.592 16.2168C373.592 12.1286 372.469 8.17655 367.931 8.17655H356.294C351.756 8.17655 350.633 12.1286 350.633 16.2168C350.633 20.3505 351.756 24.3025 356.294 24.3025H367.931Z" fill="#2E2E2E"/>
<path fill-rule="evenodd" clip-rule="evenodd" d="M1.7134 0C0.767117 0 0 0.761785 0 1.70149V15.3134C0 16.2531 0.767117 17.0149 1.7134 17.0149H15.187L18.5112 22.2168C18.5249 22.2382 18.5393 22.2591 18.5542 22.2793C18.5219 22.4098 18.5048 22.5462 18.5048 22.6866V36.2985C18.5048 37.2382 19.2719 38 20.2182 38H33.9254C34.8717 38 35.6388 37.2382 35.6388 36.2985V22.6866C35.6388 22.6313 35.6361 22.5766 35.6309 22.5226C35.7418 22.4416 35.8397 22.3391 35.9179 22.2168L39.2426 17.0142C39.2597 17.0147 39.2769 17.0149 39.2941 17.0149H52.9389L56.2632 22.2168C56.2711 22.2291 56.2793 22.2413 56.2876 22.2533C56.2937 22.2621 56.2998 22.2707 56.3061 22.2793C56.2739 22.4098 56.2567 22.5462 56.2567 22.6866V36.2985C56.2567 37.2382 57.0239 38 57.9701 38H71.6774C72.6237 38 73.3908 37.2382 73.3908 36.2985V22.6866C73.3908 22.6313 73.3881 22.5766 73.3829 22.5226C73.4938 22.4416 73.5917 22.3391 73.6699 22.2168L76.9946 17.0142C77.0117 17.0147 77.0288 17.0149 77.046 17.0149H90.7533C91.6996 17.0149 92.4667 16.2531 92.4667 15.3134V1.70149C92.4667 0.761784 91.6996 0 90.7533 0H77.046C76.0998 0 75.3326 0.761785 75.3326 1.70149V15.3134C75.3326 15.3354 75.3331 15.3572 75.3339 15.3789L71.7503 20.9866C71.7261 20.9856 71.7018 20.9851 71.6774 20.9851H58.1818L54.7001 15.5368C54.7097 15.4637 54.7147 15.3891 54.7147 15.3134V1.70149C54.7147 0.761784 53.9476 0 53.0013 0H39.2941C38.3478 0 37.5806 0.761785 37.5806 1.70149V15.3134C37.5806 15.3354 37.5811 15.3572 37.5819 15.3789L33.9983 20.9866C33.9741 20.9856 33.9498 20.9851 33.9254 20.9851H20.4299L17.0792 15.742C17.115 15.6051 17.134 15.4615 17.134 15.3134V1.70149C17.134 0.761784 16.3669 0 15.4206 0H1.7134ZM2.28454 2.26866V14.7463H14.8495V2.26866H2.28454ZM77.6172 14.7463V2.26866H90.1821V14.7463H77.6172Z" fill="#FF66FF"/>
</svg>
