<svg width="353" height="38" viewBox="0 0 353 38" fill="none" xmlns="http://www.w3.org/2000/svg">
<path fill-rule="evenodd" clip-rule="evenodd" d="M1.7134 0C0.767117 0 0 0.761785 0 1.70149V15.3134C0 16.2531 0.767117 17.0149 1.7134 17.0149H15.187L18.5112 22.2168C18.5249 22.2382 18.5393 22.2591 18.5542 22.2793C18.5219 22.4098 18.5048 22.5462 18.5048 22.6866V36.2985C18.5048 37.2382 19.2719 38 20.2182 38H33.9254C34.8717 38 35.6388 37.2382 35.6388 36.2985V22.6866C35.6388 22.6313 35.6361 22.5766 35.6309 22.5226C35.7418 22.4416 35.8397 22.3391 35.9179 22.2168L39.2426 17.0142C39.2597 17.0147 39.2769 17.0149 39.2941 17.0149H52.9389L56.2632 22.2168C56.2711 22.2291 56.2793 22.2413 56.2876 22.2533C56.2937 22.2621 56.2998 22.2707 56.3061 22.2793C56.2739 22.4098 56.2567 22.5462 56.2567 22.6866V36.2985C56.2567 37.2382 57.0239 38 57.9701 38H71.6774C72.6237 38 73.3908 37.2382 73.3908 36.2985V22.6866C73.3908 22.6313 73.3881 22.5766 73.3829 22.5226C73.4938 22.4416 73.5917 22.3391 73.6699 22.2168L76.9946 17.0142C77.0117 17.0147 77.0288 17.0149 77.046 17.0149H90.7533C91.6996 17.0149 92.4667 16.2531 92.4667 15.3134V1.70149C92.4667 0.761784 91.6996 0 90.7533 0H77.046C76.0998 0 75.3326 0.761785 75.3326 1.70149V15.3134C75.3326 15.3354 75.3331 15.3572 75.3339 15.3789L71.7503 20.9866C71.7261 20.9856 71.7018 20.9851 71.6774 20.9851H58.1818L54.7001 15.5368C54.7097 15.4637 54.7147 15.3891 54.7147 15.3134V1.70149C54.7147 0.761784 53.9476 0 53.0013 0H39.2941C38.3478 0 37.5806 0.761785 37.5806 1.70149V15.3134C37.5806 15.3354 37.5811 15.3572 37.5819 15.3789L33.9983 20.9866C33.9741 20.9856 33.9498 20.9851 33.9254 20.9851H20.4299L17.0792 15.742C17.115 15.6051 17.134 15.4615 17.134 15.3134V1.70149C17.134 0.761784 16.3669 0 15.4206 0H1.7134ZM2.28454 2.26866V14.7463H14.8495V2.26866H2.28454ZM77.6172 14.7463V2.26866H90.1821V14.7463H77.6172Z" fill="#FF66FF"/>
<path d="M151.829 6L141.553 31.6055H133.403L127.415 16.651L121.426 31.6055H113.276L103 6H110.512L117.776 24.0745L124.155 6H130.675L137.053 24.0745L144.282 6H151.829Z" fill="#2E2E2E"/>
<path d="M170.093 6C170.849 6 171.7 6.04782 172.645 6.14345C173.613 6.21517 174.594 6.40644 175.586 6.71724C176.578 7.00414 177.547 7.43448 178.492 8.00828C179.437 8.55816 180.275 9.31126 181.007 10.2676C181.74 11.2 182.33 12.3715 182.779 13.7821C183.228 15.1687 183.452 16.8423 183.452 18.8028C183.452 20.7632 183.228 22.4487 182.779 23.8593C182.33 25.246 181.74 26.4175 181.007 27.3738C180.275 28.3062 179.437 29.0593 178.492 29.6331C177.547 30.183 176.578 30.6133 175.586 30.9241C174.594 31.211 173.613 31.4023 172.645 31.4979C171.7 31.5697 170.849 31.6055 170.093 31.6055H164.601C163.845 31.6055 162.983 31.5697 162.014 31.4979C161.069 31.4023 160.101 31.211 159.109 30.9241C158.116 30.6133 157.148 30.183 156.203 29.6331C155.258 29.0593 154.419 28.3062 153.687 27.3738C152.955 26.4175 152.364 25.246 151.915 23.8593C151.466 22.4487 151.242 20.7632 151.242 18.8028C151.242 16.8423 151.466 15.1687 151.915 13.7821C152.364 12.3715 152.955 11.2 153.687 10.2676C154.419 9.31126 155.258 8.55816 156.203 8.00828C157.148 7.43448 158.116 7.00414 159.109 6.71724C160.101 6.40644 161.069 6.21517 162.014 6.14345C162.983 6.04782 163.845 6 164.601 6H170.093ZM171.936 25.1862C172.834 25.1862 173.566 25.0069 174.133 24.6483C174.724 24.2897 175.184 23.8115 175.515 23.2138C175.846 22.6161 176.07 21.9347 176.188 21.1697C176.33 20.4046 176.401 19.6156 176.401 18.8028C176.401 17.9899 176.33 17.2009 176.188 16.4359C176.07 15.6708 175.846 15.0014 175.515 14.4276C175.184 13.8299 174.724 13.3517 174.133 12.9931C173.566 12.6345 172.834 12.4552 171.936 12.4552H162.758C161.861 12.4552 161.117 12.6345 160.526 12.9931C159.959 13.3517 159.51 13.8299 159.179 14.4276C158.849 15.0014 158.613 15.6708 158.471 16.4359C158.353 17.2009 158.294 17.9899 158.294 18.8028C158.294 19.6156 158.353 20.4046 158.471 21.1697C158.613 21.9347 158.849 22.6161 159.179 23.2138C159.51 23.8115 159.959 24.2897 160.526 24.6483C161.117 25.0069 161.861 25.1862 162.758 25.1862H171.936Z" fill="#2E2E2E"/>
<path d="M216.629 15.5752C216.629 16.9857 216.452 18.2051 216.097 19.2331C215.743 20.2372 215.27 21.0979 214.68 21.8152C214.089 22.5085 213.404 23.0703 212.625 23.5007C211.869 23.931 211.066 24.2657 210.215 24.5048L217.904 31.6055H208.727L202.065 25.1503H193.171V31.6055H186.438V6H204.545C205.301 6 206.128 6.03586 207.026 6.10759C207.924 6.1554 208.821 6.2869 209.719 6.50207C210.617 6.71724 211.479 7.04 212.306 7.47035C213.133 7.87678 213.865 8.43862 214.503 9.15586C215.141 9.8731 215.648 10.7577 216.026 11.8097C216.428 12.8377 216.629 14.0929 216.629 15.5752ZM193.171 18.731H205.112C206.01 18.731 206.742 18.6593 207.309 18.5159C207.9 18.3724 208.361 18.1692 208.691 17.9062C209.022 17.6432 209.247 17.3205 209.365 16.9379C209.506 16.5315 209.577 16.0772 209.577 15.5752C209.577 15.0731 209.506 14.6308 209.365 14.2483C209.247 13.8657 209.022 13.543 208.691 13.28C208.361 12.9931 207.9 12.7899 207.309 12.6703C206.742 12.5269 206.01 12.4552 205.112 12.4552H193.171V18.731Z" fill="#2E2E2E"/>
<path d="M250.274 6L239.36 18.8028L250.274 31.6055H241.45L233.513 21.9945H226.532V31.6055H219.835V6H226.532V15.611H233.513L241.45 6H250.274Z" fill="#2E2E2E"/>
<path d="M278.883 13.8897C278.883 14.8699 278.647 15.7903 278.174 16.651C277.725 17.5117 276.934 18.229 275.8 18.8028C276.934 19.3766 277.725 20.0938 278.174 20.9545C278.647 21.8152 278.883 22.7476 278.883 23.7517C278.883 24.2299 278.836 24.7559 278.741 25.3297C278.67 25.9034 278.493 26.4892 278.21 27.0869C277.926 27.6607 277.513 28.2225 276.969 28.7724C276.45 29.3223 275.741 29.8124 274.843 30.2428C273.969 30.6492 272.883 30.9839 271.583 31.2469C270.308 31.486 268.76 31.6055 266.941 31.6055H262.441C260.622 31.6055 259.063 31.4501 257.764 31.1393C256.464 30.8285 255.366 30.434 254.468 29.9559C253.594 29.4538 252.885 28.88 252.342 28.2345C251.822 27.589 251.421 26.9434 251.137 26.2979C250.854 25.6285 250.665 24.983 250.57 24.3614C250.499 23.7159 250.464 23.154 250.464 22.6759H257.197C257.197 22.8671 257.232 23.1062 257.303 23.3931C257.374 23.68 257.527 23.9549 257.764 24.2179C258.023 24.4809 258.378 24.708 258.827 24.8993C259.276 25.0906 259.866 25.1862 260.598 25.1862H269.812C270.284 25.1862 270.674 25.1264 270.981 25.0069C271.288 24.8874 271.524 24.732 271.69 24.5407C271.879 24.3494 272.009 24.1462 272.079 23.931C272.15 23.692 272.186 23.4529 272.186 23.2138C272.186 22.6639 271.973 22.1977 271.548 21.8152C271.146 21.4087 270.39 21.2055 269.28 21.2055H259.642V16.4H269.28C270.39 16.4 271.146 16.2087 271.548 15.8262C271.973 15.4198 272.186 14.9536 272.186 14.4276C272.186 14.1885 272.15 13.9494 272.079 13.7103C272.009 13.4713 271.879 13.268 271.69 13.1007C271.524 12.9094 271.288 12.754 270.981 12.6345C270.674 12.5149 270.284 12.4552 269.812 12.4552H259.5C258.508 12.4552 257.858 12.6225 257.551 12.9572C257.268 13.292 257.126 13.8418 257.126 14.6069H250.429C250.429 13.6984 250.535 12.7421 250.747 11.7379C250.984 10.7099 251.503 9.77747 252.307 8.94069C253.133 8.08 254.338 7.37471 255.921 6.82483C257.504 6.27494 259.654 6 262.37 6H266.941C268.76 6 270.308 6.13149 271.583 6.39448C272.883 6.63356 273.969 6.96828 274.843 7.39862C275.741 7.80506 276.45 8.28322 276.969 8.8331C277.513 9.38299 277.926 9.95678 278.21 10.5545C278.493 11.1283 278.67 11.714 278.741 12.3117C278.836 12.8855 278.883 13.4115 278.883 13.8897Z" fill="#2E2E2E"/>
<path d="M286.3 24.4331C286.82 24.4331 287.304 24.5287 287.753 24.72C288.202 24.9113 288.592 25.1862 288.922 25.5448C289.277 25.8795 289.548 26.274 289.737 26.7283C289.95 27.1825 290.056 27.6726 290.056 28.1986C290.056 28.7246 289.95 29.2147 289.737 29.669C289.548 30.1232 289.277 30.5297 288.922 30.8883C288.592 31.223 288.202 31.486 287.753 31.6772C287.304 31.8924 286.82 32 286.3 32C285.78 32 285.296 31.8924 284.847 31.6772C284.399 31.486 284.009 31.223 283.678 30.8883C283.347 30.5297 283.076 30.1232 282.863 29.669C282.674 29.2147 282.58 28.7246 282.58 28.1986C282.58 27.6726 282.674 27.1825 282.863 26.7283C283.076 26.274 283.347 25.8795 283.678 25.5448C284.009 25.1862 284.399 24.9113 284.847 24.72C285.296 24.5287 285.78 24.4331 286.3 24.4331Z" fill="#2E2E2E"/>
<path d="M293.725 6H319.203V12.4552H309.707V31.6055H303.009V12.4552H293.725V6Z" fill="#2E2E2E"/>
<path d="M339.641 6C340.397 6 341.247 6.04782 342.192 6.14345C343.161 6.21517 344.141 6.40644 345.133 6.71724C346.126 7.00414 347.094 7.43448 348.039 8.00828C348.984 8.55816 349.823 9.31126 350.555 10.2676C351.287 11.2 351.878 12.3715 352.327 13.7821C352.776 15.1687 353 16.8423 353 18.8028C353 20.7632 352.776 22.4487 352.327 23.8593C351.878 25.246 351.287 26.4175 350.555 27.3738C349.823 28.3062 348.984 29.0593 348.039 29.6331C347.094 30.183 346.126 30.6133 345.133 30.9241C344.141 31.211 343.161 31.4023 342.192 31.4979C341.247 31.5697 340.397 31.6055 339.641 31.6055H334.149C333.393 31.6055 332.53 31.5697 331.562 31.4979C330.617 31.4023 329.648 31.211 328.656 30.9241C327.664 30.6133 326.695 30.183 325.75 29.6331C324.806 29.0593 323.967 28.3062 323.235 27.3738C322.502 26.4175 321.912 25.246 321.463 23.8593C321.014 22.4487 320.79 20.7632 320.79 18.8028C320.79 16.8423 321.014 15.1687 321.463 13.7821C321.912 12.3715 322.502 11.2 323.235 10.2676C323.967 9.31126 324.806 8.55816 325.75 8.00828C326.695 7.43448 327.664 7.00414 328.656 6.71724C329.648 6.40644 330.617 6.21517 331.562 6.14345C332.53 6.04782 333.393 6 334.149 6H339.641ZM341.484 25.1862C342.381 25.1862 343.114 25.0069 343.681 24.6483C344.271 24.2897 344.732 23.8115 345.063 23.2138C345.393 22.6161 345.618 21.9347 345.736 21.1697C345.878 20.4046 345.948 19.6156 345.948 18.8028C345.948 17.9899 345.878 17.2009 345.736 16.4359C345.618 15.6708 345.393 15.0014 345.063 14.4276C344.732 13.8299 344.271 13.3517 343.681 12.9931C343.114 12.6345 342.381 12.4552 341.484 12.4552H332.306C331.408 12.4552 330.664 12.6345 330.074 12.9931C329.507 13.3517 329.058 13.8299 328.727 14.4276C328.396 15.0014 328.16 15.6708 328.018 16.4359C327.9 17.2009 327.841 17.9899 327.841 18.8028C327.841 19.6156 327.9 20.4046 328.018 21.1697C328.16 21.9347 328.396 22.6161 328.727 23.2138C329.058 23.8115 329.507 24.2897 330.074 24.6483C330.664 25.0069 331.408 25.1862 332.306 25.1862H341.484Z" fill="#2E2E2E"/>
</svg>
