<svg width="56" height="61" viewBox="0 0 56 61" fill="none" xmlns="http://www.w3.org/2000/svg">
<path d="M38.9138 56.8112H35.6023V52.8777H20.2262V56.8112H16.9147C15.8884 56.8112 15.0557 57.7305 15.0557 58.8635C15.0557 59.9965 15.8884 60.9265 16.9147 60.9265H38.9138C39.9401 60.9265 40.7728 60.0072 40.7728 58.8742C40.7728 57.7412 39.9401 56.8112 38.9138 56.8112Z" fill="white"/>
<path d="M51.5842 6.64868H49.3281V9.94088H49.6089C51.2259 9.94088 52.5525 11.3946 52.5525 13.1796V39.8593C52.5525 41.6444 51.2259 43.0981 49.6089 43.0981H6.22088C4.60388 43.0981 3.27735 41.6444 3.27735 39.8593V13.1796C3.27735 11.3946 4.60388 9.94088 6.22088 9.94088H6.50168V6.64868H4.2553C2.0767 6.64868 0.314453 8.60476 0.314453 11.0098V46.3903C0.314453 48.7953 2.0767 50.7514 4.2553 50.7514H51.5939C53.7725 50.7514 55.5347 48.7953 55.5347 46.3903V11.0098C55.5347 8.60476 53.7628 6.64868 51.5842 6.64868ZM27.9294 47.1171C27.3872 47.1171 26.9612 46.6468 26.9612 46.0482C26.9612 45.4603 27.3872 44.9793 27.9294 44.9793C28.462 44.9793 28.8977 45.4603 28.8977 46.0482C28.8977 46.6468 28.462 47.1171 27.9294 47.1171Z" fill="white"/>
<path d="M10.4923 32.7939H13.8037V38.5231L20.4945 32.7939H35.4736C35.9383 32.7939 36.3644 32.6121 36.7129 32.3235L34.6699 30.5812H16.4084C14.2104 30.5812 12.4288 28.6145 12.4288 26.1881V6.54175H10.4923C9.35939 6.54175 8.44922 7.5572 8.44922 8.79712V30.5385C8.44922 31.7784 9.35939 32.7939 10.4923 32.7939Z" fill="white"/>
<path d="M24.0957 17.583H25.2188V13.5105H24.0957C23.079 13.5105 22.2559 14.4191 22.2559 15.5414C22.2463 16.6637 23.079 17.583 24.0957 17.583Z" fill="white"/>
<path d="M31.5502 22.1797H29.4394C29.0618 22.1797 28.752 22.5217 28.752 22.9386C28.752 23.3555 29.0618 23.6975 29.4394 23.6975H31.5502C31.9279 23.6975 32.2377 23.3555 32.2377 22.9386C32.2474 22.5217 31.9376 22.1797 31.5502 22.1797Z" fill="white"/>
<path d="M16.4112 28.4326H35.3408L42.0316 34.1619V28.4326H45.3527C46.4856 28.4326 47.3958 27.4172 47.3958 26.1773V2.25537C47.3958 1.01545 46.4856 0 45.3527 0H16.4112C15.288 0 14.3682 1.01545 14.3682 2.25537V26.1773C14.3682 27.4172 15.288 28.4326 16.4112 28.4326ZM24.0992 11.3731H24.1089V10.069C24.1089 5.94306 27.1493 2.58673 30.8868 2.58673C34.6243 2.58673 37.6647 5.94306 37.6647 10.069V11.3731H37.6744C39.7561 11.3731 41.4506 13.2436 41.4506 15.5418C41.4506 17.081 40.6857 18.4171 39.5528 19.1332V20.4907C39.5528 22.4254 38.1198 24.0074 36.3672 24.0074H34.0046C33.6173 25.0763 32.6684 25.8352 31.5646 25.8352H29.4538C28.0014 25.8352 26.8298 24.5312 26.8298 22.9385C26.8298 21.3352 28.0111 20.0418 29.4538 20.0418H31.5646C32.6684 20.0418 33.6173 20.8007 34.0046 21.8696H36.3672C37.0547 21.8696 37.6163 21.2497 37.6163 20.4907V19.7105H35.5829C35.0504 19.7105 34.6146 19.2294 34.6146 18.6416V12.4313C34.6146 11.8434 35.0504 11.3624 35.5829 11.3624H35.7281V10.0583C35.7281 7.10816 33.5592 4.71383 30.8868 4.71383C28.2144 4.71383 26.0455 7.10816 26.0455 10.0583V11.3624H26.1907C26.7233 11.3624 27.159 11.8434 27.159 12.4313V18.6416C27.159 19.2294 26.7233 19.7105 26.1907 19.7105H24.0992C22.0175 19.7105 20.323 17.8399 20.323 15.5418C20.3133 13.2436 22.0078 11.3731 24.0992 11.3731Z" fill="white"/>
<path d="M39.5 15.5414C39.5 14.4191 38.677 13.5105 37.6603 13.5105H36.5371V17.583H37.6603C38.677 17.583 39.5 16.6637 39.5 15.5414Z" fill="white"/>
</svg>
