<svg width="56" height="50" viewBox="0 0 56 50" fill="none" xmlns="http://www.w3.org/2000/svg">
<path fill-rule="evenodd" clip-rule="evenodd" d="M7.83368 36.732V2.14077C7.83368 1.34517 7.24877 0.699463 6.52807 0.699463H3.91684C2.87757 0.699463 1.88139 1.15491 1.14763 1.96637C0.412571 2.77638 0 3.8761 0 5.02337V39.6147C1.12283 38.685 2.49633 38.1733 3.91684 38.1733H6.52807C6.87406 38.1733 7.20699 38.022 7.45114 37.751C7.6966 37.4815 7.83368 37.114 7.83368 36.732Z" fill="white"/>
<path fill-rule="evenodd" clip-rule="evenodd" d="M26.6992 31.7546L30.4398 30.5799L27.7633 27.6252L26.6992 31.7546Z" fill="white"/>
<path fill-rule="evenodd" clip-rule="evenodd" d="M29.1055 25.0274L32.7977 29.1035L49.2302 10.9632L45.5379 6.88721L29.1055 25.0274Z" fill="white"/>
<path fill-rule="evenodd" clip-rule="evenodd" d="M51.0819 8.92489L47.3896 4.84888L51.3992 0.422662C51.9084 -0.140887 52.7361 -0.140887 53.2453 0.422662L55.0915 2.46062C55.602 3.02273 55.602 3.93652 55.0915 4.49863L51.0819 8.92489Z" fill="white"/>
<path fill-rule="evenodd" clip-rule="evenodd" d="M51.7767 12.2307L33.9499 31.9088C33.4786 32.4306 32.8936 32.8096 32.2526 33.0114L25.1644 35.2368C24.7087 35.3795 24.2178 35.2397 23.8836 34.8693C23.5481 34.5003 23.4214 33.9584 23.5507 33.4554L25.5665 25.6305C25.7493 24.9228 26.0927 24.2771 26.5653 23.7568L37.005 12.2307H10.4449V36.7329C10.4449 37.8801 10.0323 38.9799 9.29728 39.7899C8.56352 40.6013 7.56734 41.0568 6.52807 41.0568H3.91684C2.87757 41.0568 1.88139 41.5122 1.14763 42.3237C0.412571 43.1337 0 44.2334 0 45.3807C0 46.528 0.412571 47.6277 1.14763 48.4377C1.88139 49.2491 2.87757 49.7046 3.91684 49.7046H53.5302C54.2509 49.7046 54.8358 49.0589 54.8358 48.2633V13.672C54.8358 12.8764 54.2509 12.2307 53.5302 12.2307H51.7767ZM27.4179 41.0568H48.3077C49.0284 41.0568 49.6133 40.4111 49.6133 39.6155C49.6133 38.8199 49.0284 38.1742 48.3077 38.1742H27.4179C26.6972 38.1742 26.1123 38.8199 26.1123 39.6155C26.1123 40.4111 26.6972 41.0568 27.4179 41.0568ZM16.973 41.0568H22.1954C22.9161 41.0568 23.501 40.4111 23.501 39.6155C23.501 38.8199 22.9161 38.1742 22.1954 38.1742H16.973C16.2523 38.1742 15.6674 38.8199 15.6674 39.6155C15.6674 40.4111 16.2523 41.0568 16.973 41.0568Z" fill="white"/>
</svg>
