<svg width="59" height="51" viewBox="0 0 59 51" fill="none" xmlns="http://www.w3.org/2000/svg">
<path d="M56.2601 0H2.42276C1.9382 0 1.47348 0.212498 1.13084 0.590748C0.788196 0.968998 0.595703 1.48202 0.595703 2.01694V48.6755C0.595703 49.2105 0.788196 49.7235 1.13084 50.1017C1.47348 50.48 1.9382 50.6925 2.42276 50.6925H56.2601C56.7447 50.6925 57.2094 50.48 57.5521 50.1017C57.8947 49.7235 58.0872 49.2105 58.0872 48.6755V2.01694C58.0872 1.48202 57.8947 0.968998 57.5521 0.590748C57.2094 0.212498 56.7447 0 56.2601 0ZM23.4949 38.1874L20.9979 41.1456L13.9332 33.8846C13.7488 33.6958 13.6016 33.467 13.5009 33.2125C13.4003 32.958 13.3483 32.6832 13.3483 32.4055C13.3483 32.1278 13.4003 31.8531 13.5009 31.5986C13.6016 31.3441 13.7488 31.1153 13.9332 30.9264L21.0588 23.6655L23.5558 26.6236L17.8919 32.4055L23.4949 38.1874ZM28.1234 44.5744L24.5911 43.5659L29.9505 20.3711L33.4828 21.3124L28.1234 44.5744ZM44.7497 33.8846L37.6241 41.1456L35.1271 38.1874L40.791 32.4055L35.1271 26.6236L37.6241 23.6655L44.7497 30.9264C44.9341 31.1153 45.0813 31.3441 45.182 31.5986C45.2826 31.8531 45.3346 32.1278 45.3346 32.4055C45.3346 32.6832 45.2826 32.958 45.182 33.2125C45.0813 33.467 44.9341 33.6958 44.7497 33.8846ZM54.494 14.0514H4.24982V4.03388H54.4331L54.494 14.0514Z" fill="white"/>
<path d="M9.97896 12.2352C11.5935 12.2352 12.9023 10.7904 12.9023 9.00811C12.9023 7.22583 11.5935 5.78101 9.97896 5.78101C8.36447 5.78101 7.05566 7.22583 7.05566 9.00811C7.05566 10.7904 8.36447 12.2352 9.97896 12.2352Z" fill="white"/>
<path d="M17.5268 12.2352C19.1413 12.2352 20.4501 10.7904 20.4501 9.00811C20.4501 7.22583 19.1413 5.78101 17.5268 5.78101C15.9123 5.78101 14.6035 7.22583 14.6035 9.00811C14.6035 10.7904 15.9123 12.2352 17.5268 12.2352Z" fill="white"/>
<path d="M25.4438 12.2352C27.0583 12.2352 28.3671 10.7904 28.3671 9.00811C28.3671 7.22583 27.0583 5.78101 25.4438 5.78101C23.8293 5.78101 22.5205 7.22583 22.5205 9.00811C22.5205 10.7904 23.8293 12.2352 25.4438 12.2352Z" fill="white"/>
</svg>
