<svg width="57" height="63" viewBox="0 0 57 63" fill="none" xmlns="http://www.w3.org/2000/svg">
<path fill-rule="evenodd" clip-rule="evenodd" d="M35.2624 57.4473H29.8979V54.041H35.059V56.333C35.059 56.7273 35.1315 57.104 35.2624 57.4473ZM28.1704 60.2929V27.845C28.1704 26.354 27.0721 25.1379 25.7255 25.1379H2.44496C1.09838 25.1379 0 26.354 0 27.845V60.2929C0 61.7838 1.09838 63 2.44496 63H25.7255C27.0721 63 28.1704 61.7838 28.1704 60.2929ZM4.59927 54.641C5.5868 54.641 6.57434 54.641 7.56129 54.641C8.09957 54.641 8.53939 55.1273 8.53939 55.7233C8.53939 56.8167 8.53939 57.9102 8.53939 59.0029C8.53939 59.5989 8.10016 60.0853 7.56129 60.0853C6.57375 60.0853 5.5868 60.0853 4.59927 60.0853C4.06099 60.0853 3.62175 59.5989 3.62175 59.0029C3.62175 57.9095 3.62175 56.8161 3.62175 55.7233C3.62175 55.1273 4.06099 54.641 4.59927 54.641ZM4.59927 46.2819C5.5868 46.2819 6.57434 46.2819 7.56129 46.2819C8.09957 46.2819 8.53939 46.7682 8.53939 47.3649C8.53939 48.4583 8.53939 49.5511 8.53939 50.6445C8.53939 51.2412 8.10016 51.7275 7.56129 51.7275C6.57375 51.7275 5.5868 51.7275 4.59927 51.7275C4.06099 51.7275 3.62175 51.2412 3.62175 50.6445C3.62175 49.5511 3.62175 48.4583 3.62175 47.3649C3.62175 46.7682 4.06099 46.2819 4.59927 46.2819ZM12.6039 54.641C13.5914 54.641 14.5784 54.641 15.5659 54.641C16.1042 54.641 16.544 55.1273 16.544 55.7233C16.544 56.8167 16.544 57.9102 16.544 59.0029C16.544 59.5989 16.1048 60.0853 15.5659 60.0853C14.5784 60.0853 13.5914 60.0853 12.6039 60.0853C12.065 60.0853 11.6258 59.5989 11.6258 59.0029C11.6258 57.9095 11.6258 56.8161 11.6258 55.7233C11.6264 55.1273 12.0656 54.641 12.6039 54.641ZM12.6039 46.2819C13.5914 46.2819 14.5784 46.2819 15.5659 46.2819C16.1042 46.2819 16.544 46.7682 16.544 47.3649C16.544 48.4583 16.544 49.5511 16.544 50.6445C16.544 51.2412 16.1048 51.7275 15.5659 51.7275C14.5784 51.7275 13.5914 51.7275 12.6039 51.7275C12.065 51.7275 11.6258 51.2412 11.6258 50.6445C11.6258 49.5511 11.6258 48.4583 11.6258 47.3649C11.6264 46.7682 12.0656 46.2819 12.6039 46.2819ZM20.6091 46.2819C21.5967 46.2819 22.5842 46.2819 23.5712 46.2819C24.1094 46.2819 24.5487 46.7682 24.5487 47.3649C24.5487 51.2445 24.5487 55.124 24.5487 59.0036C24.5487 59.5996 24.1094 60.0859 23.5712 60.0859C22.5836 60.0859 21.5967 60.0859 20.6091 60.0859C20.0709 60.0859 19.6316 59.5996 19.6316 59.0036C19.6316 55.124 19.6316 51.2445 19.6316 47.3649C19.631 46.7682 20.0703 46.2819 20.6091 46.2819ZM20.6091 37.9222C21.5967 37.9222 22.5842 37.9222 23.5712 37.9222C24.1094 37.9222 24.5487 38.4085 24.5487 39.0045C24.5487 40.098 24.5487 41.1914 24.5487 42.2842C24.5487 42.8808 24.1094 43.3665 23.5712 43.3665C22.5836 43.3665 21.5967 43.3665 20.6091 43.3665C20.0709 43.3665 19.6316 42.8802 19.6316 42.2842C19.6316 41.1908 19.6316 40.0973 19.6316 39.0045C19.631 38.4085 20.0703 37.9222 20.6091 37.9222ZM12.6039 37.9222C13.5914 37.9222 14.5784 37.9222 15.5659 37.9222C16.1042 37.9222 16.544 38.4085 16.544 39.0045C16.544 40.098 16.544 41.1914 16.544 42.2842C16.544 42.8808 16.1048 43.3665 15.5659 43.3665C14.5784 43.3665 13.5914 43.3665 12.6039 43.3665C12.065 43.3665 11.6258 42.8802 11.6258 42.2842C11.6258 41.1908 11.6258 40.0973 11.6258 39.0045C11.6264 38.4085 12.0656 37.9222 12.6039 37.9222ZM4.59927 37.9222C5.5868 37.9222 6.57434 37.9222 7.56129 37.9222C8.09957 37.9222 8.53939 38.4085 8.53939 39.0045C8.53939 40.098 8.53939 41.1914 8.53939 42.2842C8.53939 42.8808 8.10016 43.3665 7.56129 43.3665C6.57375 43.3665 5.5868 43.3665 4.59927 43.3665C4.06099 43.3665 3.62175 42.8802 3.62175 42.2842C3.62175 41.1908 3.62175 40.0973 3.62175 39.0045C3.62175 38.4085 4.06099 37.9222 4.59927 37.9222ZM23.5712 28.864C24.1089 28.864 24.5493 29.351 24.5493 29.9463V33.9258C24.5493 34.5211 24.1094 35.0081 23.5712 35.0081H4.59927C4.06157 35.0081 3.62175 34.5211 3.62175 33.9258V29.9463C3.62175 29.351 4.06157 28.864 4.59927 28.864H23.5712ZM46.8929 19.4625C52.475 19.4625 57 24.4727 57 30.6533C57 36.834 52.475 41.8442 46.8929 41.8442C41.3109 41.8442 36.7865 36.834 36.7865 30.6533C36.7865 24.4727 41.3109 19.4625 46.8929 19.4625ZM49.4735 28.7524C49.4735 27.5428 48.7802 26.465 47.7567 26.0603V25.5635C47.7567 25.0354 47.3699 24.6071 46.8929 24.6071C46.416 24.6071 46.0292 25.0354 46.0292 25.5635V26.0276C44.8978 26.3893 44.1526 27.4285 44.1526 28.7524C44.1526 30.4712 45.3907 31.6097 46.8929 31.6097C47.4442 31.6097 47.9064 31.8891 47.9064 32.5543C47.9064 33.2195 47.4442 33.4989 46.8929 33.4989C46.4254 33.4989 46.0398 33.0719 46.0398 32.5543C46.0398 32.0262 45.6531 31.5979 45.1761 31.5979C44.6991 31.5979 44.3124 32.0262 44.3124 32.5543C44.3124 33.7639 45.0057 34.8417 46.0292 35.2464V35.7425C46.0292 36.2706 46.416 36.6989 46.8929 36.6989C47.3699 36.6989 47.7567 36.2706 47.7567 35.7425V35.2784C48.8881 34.9167 49.6339 33.8775 49.6339 32.5536C49.6339 30.8348 48.3958 29.6963 46.8935 29.6963C46.3423 29.6963 45.88 29.4163 45.88 28.7517C45.88 28.0865 46.3423 27.8071 46.8935 27.8071C47.3611 27.8071 47.7466 28.2341 47.7466 28.7517C47.7466 29.2798 48.1334 29.7081 48.6104 29.7081C49.0873 29.7081 49.4735 29.2805 49.4735 28.7524ZM46.8929 21.853C42.5036 21.853 38.9449 25.7926 38.9449 30.6533C38.9449 35.5134 42.5036 39.4537 46.8929 39.4537C51.2823 39.4537 54.841 35.5134 54.841 30.6533C54.841 25.7933 51.2823 21.853 46.8929 21.853ZM46.8929 23.765C43.4575 23.765 40.6723 26.8488 40.6723 30.6527C40.6723 34.4565 43.4575 37.5403 46.8929 37.5403C50.3284 37.5403 53.1135 34.4565 53.1135 30.6527C53.1135 26.8488 50.329 23.765 46.8929 23.765ZM56.1257 52.3568H37.6602C37.1815 52.3568 36.7865 52.7942 36.7865 53.3249V56.3337C36.7865 56.8637 37.1815 57.3011 37.6602 57.3011H56.1257C56.6044 57.3011 57 56.8637 57 56.3337V53.3249C57 52.7942 56.605 52.3568 56.1257 52.3568ZM37.5228 38.656C37.1025 38.731 36.7865 39.139 36.7865 39.6116V42.6204C36.7865 43.1504 37.1815 43.5878 37.6602 43.5878H44.9951C41.9653 43.0466 39.3205 41.2325 37.5228 38.656ZM48.7908 43.5872H56.1257C56.6044 43.5872 57 43.1498 57 42.6197V39.611C57 39.1384 56.6834 38.7304 56.2636 38.6553C54.4654 41.2319 51.8206 43.0466 48.7908 43.5872ZM56.1257 45.4999H37.6602C37.1815 45.4999 36.7865 45.9372 36.7865 46.4673V49.476C36.7865 50.0061 37.1815 50.4435 37.6602 50.4435H56.1257C56.6044 50.4435 57 50.0061 57 49.476V46.4673C57 45.9372 56.605 45.4999 56.1257 45.4999ZM43.816 17.9982V5.31898H46.8929V17.5498C45.8288 17.5498 44.7976 17.7064 43.816 17.9982ZM35.2948 52.1277H29.8979V44.9097H35.4747C35.2123 45.3595 35.0596 45.8948 35.0596 46.468V49.4767C35.0596 50.215 35.3131 50.89 35.7282 51.4005C35.5519 51.6159 35.4057 51.8614 35.2948 52.1277ZM35.0814 42.9977H29.8979V40.4759H35.059V42.6204C35.059 42.7477 35.0667 42.8737 35.0814 42.9977ZM35.2377 38.5633H29.8973V32.3715H35.1598C35.3568 34.0368 35.8367 35.6028 36.5436 37.0103C36.2741 37.1526 36.0306 37.3451 35.8219 37.5756C35.5708 37.855 35.3703 38.1905 35.2377 38.5633ZM35.0614 30.4594H29.8979V27.9377H35.3143C35.1592 28.753 35.0726 29.5958 35.0614 30.4594ZM35.8196 26.025H29.5595C28.9198 24.3806 27.4417 23.2252 25.7255 23.2252H4.87872V10.9069H13.8656C14.3426 10.9069 14.7293 10.4787 14.7293 9.95056V0H42.0891V18.6758C39.2108 20.0931 36.938 22.746 35.8196 26.025ZM5.74245 8.99422H13.0019V0.955693L5.74245 8.99422ZM9.22978 17.0987L11.5085 19.909C11.8693 20.3529 12.5049 20.3222 12.8321 19.8535L16.8441 14.6709C17.1531 14.2708 17.1112 13.6689 16.7498 13.3262C16.3884 12.9841 15.8448 13.0305 15.5353 13.4313L12.1352 17.8233L10.5115 15.8212C10.1931 15.4295 9.64779 15.3975 9.29345 15.7507C8.9403 16.1025 8.91141 16.7063 9.22978 17.0987ZM37.0966 17.9212H20.6262C20.1493 17.9212 19.7625 18.3494 19.7625 18.8775C19.7625 19.4057 20.1493 19.8339 20.6262 19.8339H37.0972C37.5741 19.8339 37.9609 19.4057 37.9609 18.8775C37.9609 18.3494 37.5735 17.9212 37.0966 17.9212ZM37.0966 13.4868H20.6262C20.1493 13.4868 19.7625 13.915 19.7625 14.4431C19.7625 14.9712 20.1493 15.3995 20.6262 15.3995H37.0972C37.5741 15.3995 37.9609 14.9712 37.9609 14.4431C37.9609 13.915 37.5735 13.4868 37.0966 13.4868Z" fill="white"/>
</svg>
