<svg width="62" height="67" viewBox="0 0 62 67" fill="none" xmlns="http://www.w3.org/2000/svg">
<path d="M3.30399 43.8661C24.8591 43.6328 43.8783 31.1131 53.8105 10.9726L55.642 16.9603C55.9942 18.2045 57.1213 19.0599 58.2484 19.0599C58.5301 19.0599 58.8119 18.9821 59.0937 18.9044C60.5729 18.36 61.3478 16.6493 60.8547 15.0163L56.91 2.10772C56.4169 0.474712 54.8672 -0.380673 53.3879 0.163663L41.6946 4.44059C40.2153 4.98493 39.4405 6.6957 39.9336 8.3287C40.4267 9.96171 41.9764 10.8171 43.4556 10.2728L48.7388 8.3287C39.7927 26.2918 22.605 37.5673 3.23355 37.7229C1.68383 37.7229 0.486328 39.1226 0.486328 40.8333C0.55677 42.4664 1.75428 43.8661 3.30399 43.8661Z" fill="white"/>
<path d="M9.92081 51.9536H2.87666C1.7496 51.9536 0.904297 52.9645 0.904297 54.131V64.7066C0.904297 65.9508 1.82004 66.884 2.87666 66.884H9.92081C11.0479 66.884 11.8932 65.8731 11.8932 64.7066V54.131C11.8932 52.8868 10.9774 51.9536 9.92081 51.9536Z" fill="white"/>
<path d="M25.9833 48.6875H18.9392C17.8121 48.6875 16.9668 49.6984 16.9668 50.8648V64.6288C16.9668 65.873 17.8825 66.8061 18.9392 66.8061H25.9833C27.1104 66.8061 27.9557 65.7952 27.9557 64.6288V50.9426C27.9557 49.6984 27.0399 48.6875 25.9833 48.6875Z" fill="white"/>
<path d="M42.0458 42.2334H35.0017C33.8746 42.2334 33.0293 43.2443 33.0293 44.4107V64.6289C33.0293 65.8731 33.945 66.8063 35.0017 66.8063H42.0458C43.1729 66.8063 44.0182 65.7954 44.0182 64.6289V44.4107C44.0182 43.2443 43.1024 42.2334 42.0458 42.2334Z" fill="white"/>
<path d="M58.1083 29.4019H51.0642C49.9371 29.4019 49.0918 30.4128 49.0918 31.5792V64.7059C49.0918 65.9501 50.0075 66.8833 51.0642 66.8833H58.1083C59.2354 66.8833 60.0807 65.8724 60.0807 64.7059V31.5792C60.0807 30.335 59.1649 29.4019 58.1083 29.4019Z" fill="white"/>
</svg>
