<svg width="73" height="61" viewBox="0 0 73 61" fill="none" xmlns="http://www.w3.org/2000/svg">
<path fill-rule="evenodd" clip-rule="evenodd" d="M38.9707 38.5261L53.1692 25.3673V2.52823C53.1692 1.14006 52.1373 0 50.879 0H3.07537C1.81323 0 0.785156 1.13491 0.785156 2.52823V39.825C0.785156 41.2166 1.81556 42.3532 3.07537 42.3532H31.6793C33.5512 40.2628 36.5234 39.4816 38.9715 38.527L38.9707 38.5261ZM34.4081 24.3457L22.8653 31.7029C20.5805 33.0447 17.8875 31.3896 17.8875 28.5334V13.819C17.8875 11.0023 20.6482 9.23985 22.8614 10.6495L34.4081 18.0067C36.6183 19.4146 36.6183 22.9378 34.4081 24.3457Z" fill="white"/>
<path fill-rule="evenodd" clip-rule="evenodd" d="M43.0734 54.1433L40.9814 54.9589L42.6169 59.6488C42.8354 60.2652 43.6061 60.5124 44.1395 60.3038L45.0906 59.9329L43.0734 54.1433Z" fill="white"/>
<path fill-rule="evenodd" clip-rule="evenodd" d="M57.0753 42.1107C57.0885 42.0618 57.1002 42.012 57.1119 41.9622C57.4323 40.5774 57.1609 39.4563 56.083 38.6167C56.0278 38.5737 55.9718 38.5325 55.915 38.4922C56.2681 39.7104 56.6554 40.9191 57.0753 42.1107Z" fill="white"/>
<path fill-rule="evenodd" clip-rule="evenodd" d="M52.2006 31.0334C52.136 30.4427 52.0979 29.8864 52.0863 29.3679L40.7246 39.9144L44.4426 51.5391L59.261 51.7786C58.9701 51.3622 58.6785 50.8969 58.3892 50.3844C55.6301 45.5074 52.8701 37.1423 52.1998 31.0342L52.2006 31.0334Z" fill="white"/>
<path fill-rule="evenodd" clip-rule="evenodd" d="M64.37 37.9527C63.0713 38.4583 62.3761 36.2786 63.674 35.7738L68.3509 33.9513C69.6496 33.4456 70.3448 35.6253 69.0469 36.1301L64.37 37.9527Z" fill="white"/>
<path fill-rule="evenodd" clip-rule="evenodd" d="M62.4299 29.2474C61.3202 30.1454 60.0837 28.2825 61.1935 27.3845L65.1969 24.1523C66.3066 23.2543 67.5431 25.1172 66.4333 26.0152L62.4299 29.2474Z" fill="white"/>
<path fill-rule="evenodd" clip-rule="evenodd" d="M71.5769 43.8246C72.9511 43.7534 73.0483 46.0592 71.6749 46.1296L66.7212 46.3898C65.3471 46.461 65.2499 44.1551 66.6232 44.0847L71.5769 43.8246Z" fill="white"/>
<path fill-rule="evenodd" clip-rule="evenodd" d="M54.3394 27.363C53.7857 27.4369 54.2227 30.3445 54.2686 30.7618C54.4234 32.1731 54.7251 33.8463 55.1621 35.6757C55.876 35.862 56.6265 36.2166 57.2805 36.7265C59.0676 38.1198 59.6718 40.2162 59.1368 42.5316C58.9338 43.4098 58.5706 44.2408 58.1281 44.8975C58.8055 46.5501 59.4968 47.9992 60.1555 49.1633C60.4207 49.6321 61.5584 51.8152 62.1004 51.8238C62.277 51.6195 62.2373 50.3515 62.0266 48.4285C61.4262 42.9522 58.7876 34.7048 56.1412 30.0269C55.2897 28.5211 54.6388 27.5442 54.3402 27.3639L54.3394 27.363Z" fill="white"/>
<path fill-rule="evenodd" clip-rule="evenodd" d="M31.7894 49.9372C33.5749 55.5208 38.8451 53.3462 42.3586 51.9761L38.8553 41.0227C35.4079 42.3662 30.0125 44.3819 31.7894 49.9372Z" fill="white"/>
</svg>
