<svg width="58" height="64" viewBox="0 0 58 64" fill="none" xmlns="http://www.w3.org/2000/svg">
<path d="M13.2392 33.4619C8.93891 33.4619 5.45286 29.6135 5.45286 24.8663C5.45286 20.1192 8.93891 16.2708 13.2392 16.2708C17.5394 16.2708 21.0255 20.1192 21.0255 24.8663C21.0255 29.6135 17.5394 33.4619 13.2392 33.4619ZM13.2392 31.0351C16.3254 31.0351 18.8272 28.2732 18.8272 24.8663C18.8272 21.4594 16.3254 18.6976 13.2392 18.6976C10.153 18.6976 7.65118 21.4594 7.65118 24.8663C7.65118 28.2732 10.153 31.0351 13.2392 31.0351ZM11.1425 39.4502L12.1369 37.7285C12.4998 37.766 12.8674 37.7851 13.2392 37.7851C13.7508 37.7851 14.2548 37.7488 14.749 37.6786L15.729 39.3752C16.4957 39.2159 17.2393 38.9843 17.9537 38.6872L18.0348 36.654C18.8074 36.2704 19.5354 35.797 20.2079 35.2458L21.8336 36.1791C22.4316 35.625 22.9849 35.0141 23.487 34.3539L22.6415 32.5593C23.1408 31.8169 23.5697 31.0132 23.9171 30.1604L25.7589 30.0709C26.028 29.2821 26.2378 28.4613 26.3822 27.6149L24.8452 26.5331C24.9089 25.9875 24.9417 25.4311 24.9417 24.8663C24.9417 24.456 24.9244 24.0501 24.8905 23.6495L26.4501 22.5517C26.3325 21.7269 26.153 20.9248 25.917 20.1513L24.1062 20.0633C23.7583 19.1048 23.3093 18.2031 22.7739 17.3742L23.6262 15.5649C23.1755 14.9522 22.6811 14.3802 22.1484 13.8546L20.546 14.7746C19.776 14.0943 18.9265 13.5192 18.0152 13.0689L17.9342 11.0374C17.3028 10.776 16.6487 10.5659 15.9761 10.4115L15.0045 12.0936C14.4288 11.9974 13.8392 11.9476 13.2392 11.9476C12.7781 11.9476 12.3232 11.977 11.876 12.0343L10.891 10.3289C10.239 10.4563 9.60328 10.636 8.98755 10.8637L8.90786 12.8613C7.89699 13.3062 6.9555 13.9021 6.10631 14.6239L4.49216 13.6971C4.00296 14.1644 3.54478 14.6702 3.12148 15.2103L3.96098 16.9922C3.30716 17.9296 2.76732 18.9689 2.36435 20.0849L0.554805 20.1728C0.348509 20.8526 0.185791 21.5543 0.0703125 22.2741L1.61519 23.3615C1.56331 23.8552 1.53665 24.3573 1.53665 24.8663C1.53665 25.5288 1.58181 26.1795 1.66892 26.8151L0.145136 27.8877C0.285005 28.6302 0.475391 29.3522 0.712148 30.0493L2.55243 30.1387C2.96029 31.1447 3.48127 32.0825 4.09751 32.9325L3.26411 34.7015C3.74025 35.2896 4.25842 35.8353 4.81343 36.3329L6.45236 35.3919C7.20325 35.983 8.02008 36.4786 8.8883 36.8627L8.96804 38.8617C9.6687 39.1222 10.3953 39.3204 11.1425 39.4502Z" fill="white"/>
<path d="M34.2226 15.9538C31.2569 15.9538 28.8527 13.2998 28.8527 10.0258C28.8527 6.75193 31.2569 4.09789 34.2226 4.09789C37.1883 4.09789 39.5925 6.75193 39.5925 10.0258C39.5925 13.2998 37.1883 15.9538 34.2226 15.9538ZM34.2226 14.2802C36.351 14.2802 38.0764 12.3754 38.0764 10.0258C38.0764 7.67625 36.351 5.77153 34.2226 5.77153C32.0942 5.77153 30.3688 7.67625 30.3688 10.0258C30.3688 12.3754 32.0942 14.2802 34.2226 14.2802ZM32.7766 20.0837L33.4624 18.8963C33.7127 18.9221 33.9662 18.9353 34.2226 18.9353C34.5754 18.9353 34.923 18.9103 35.2639 18.8619L35.9397 20.032C36.4685 19.9221 36.9813 19.7624 37.474 19.5575L37.53 18.1553C38.0627 17.8907 38.5648 17.5642 39.0286 17.1841L40.1498 17.8278C40.5622 17.4456 40.9438 17.0243 41.29 16.569L40.7069 15.3314C41.0513 14.8193 41.3471 14.2651 41.5867 13.6769L42.8569 13.6152C43.0425 13.0712 43.1872 12.5051 43.2867 11.9214L42.2268 11.1754C42.2707 10.799 42.2933 10.4154 42.2933 10.0258C42.2933 9.74284 42.2814 9.46291 42.258 9.18664L43.3336 8.42956C43.2525 7.86072 43.1287 7.30753 42.9659 6.7741L41.7171 6.71339C41.4771 6.05239 41.1675 5.43052 40.7982 4.85884L41.3861 3.61108C41.0752 3.18853 40.7343 2.79403 40.3669 2.43153L39.2618 3.06602C38.7307 2.59686 38.1449 2.20022 37.5164 1.88971L37.4605 0.488649C37.0251 0.308398 36.574 0.163451 36.1101 0.0569654L35.4401 1.21707C35.043 1.15075 34.6364 1.11636 34.2226 1.11636C33.9046 1.11636 33.5909 1.13667 33.2825 1.17616L32.6032 0C32.1535 0.0879168 31.7151 0.211799 31.2904 0.368859L31.2355 1.74652C30.5383 2.05331 29.889 2.46431 29.3034 2.96208L28.1902 2.32294C27.8528 2.64521 27.5368 2.99404 27.2449 3.36648L27.8238 4.59538C27.3729 5.2419 27.0006 5.95868 26.7227 6.72828L25.4748 6.78896C25.3325 7.25773 25.2203 7.74171 25.1406 8.23812L26.2061 8.98804C26.1703 9.32849 26.1519 9.6748 26.1519 10.0258C26.1519 10.4827 26.183 10.9315 26.2431 11.3698L25.1922 12.1095C25.2887 12.6216 25.42 13.1196 25.5833 13.6003L26.8524 13.662C27.1337 14.3557 27.493 15.0025 27.918 15.5887L27.3432 16.8087C27.6716 17.2143 28.029 17.5906 28.4117 17.9338L29.542 17.2849C30.0599 17.6925 30.6232 18.0343 31.222 18.2992L31.277 19.6778C31.7602 19.8575 32.2613 19.9941 32.7766 20.0837Z" fill="white"/>
<path d="M40.6679 55.7209C35.033 55.7209 30.4651 50.6782 30.4651 44.4578C30.4651 38.2374 35.033 33.1947 40.6679 33.1947C46.3027 33.1947 50.8706 38.2374 50.8706 44.4578C50.8706 50.6782 46.3027 55.7209 40.6679 55.7209ZM40.6679 52.541C44.7118 52.541 47.9901 48.922 47.9901 44.4578C47.9901 39.9936 44.7118 36.3746 40.6679 36.3746C36.6239 36.3746 33.3457 39.9936 33.3457 44.4578C33.3457 48.922 36.6239 52.541 40.6679 52.541ZM37.9205 63.5677L39.2235 61.3117C39.699 61.3607 40.1808 61.3858 40.6679 61.3858C41.3383 61.3858 41.9986 61.3383 42.6463 61.2462L43.9304 63.4695C44.935 63.2607 45.9094 62.9572 46.8455 62.5678L46.9518 59.9037C47.9641 59.4011 48.918 58.7807 49.7993 58.0585L51.9295 59.2815C52.7131 58.5553 53.4382 57.7548 54.096 56.8898L52.9881 54.5383C53.6424 53.5654 54.2043 52.5123 54.6597 51.3948L57.073 51.2775C57.4257 50.244 57.7006 49.1684 57.8897 48.0594L55.8758 46.6419C55.9592 45.9268 56.0022 45.1979 56.0022 44.4578C56.0022 43.9201 55.9795 43.3882 55.9351 42.8633L57.9787 41.4249C57.8246 40.3441 57.5894 39.293 57.2802 38.2795L54.9074 38.1641C54.4515 36.9082 53.8632 35.7267 53.1616 34.6405L54.2785 32.2697C53.6878 31.4669 53.0401 30.7173 52.342 30.0286L50.2423 31.2341C49.2333 30.3427 48.1202 29.5891 46.9261 28.9991L46.8199 26.3371C45.9926 25.9946 45.1355 25.7192 44.2541 25.5169L42.9811 27.7211C42.2266 27.5951 41.4542 27.5298 40.6679 27.5298C40.0637 27.5298 39.4676 27.5684 38.8817 27.6434L37.591 25.4087C36.7366 25.5757 35.9036 25.8111 35.0968 26.1095L34.9923 28.7271C33.6677 29.31 32.4341 30.0909 31.3213 31.0366L29.2062 29.8223C28.5652 30.4346 27.9649 31.0974 27.4102 31.805L28.5102 34.1399C27.6535 35.3683 26.9461 36.7302 26.4181 38.1924L24.047 38.3077C23.7766 39.1984 23.5634 40.1179 23.4121 41.0611L25.4364 42.486C25.3685 43.1328 25.3335 43.7908 25.3335 44.4578C25.3335 45.3258 25.3927 46.1786 25.5068 47.0114L23.5102 48.4168C23.6934 49.3897 23.9429 50.3359 24.2531 51.2492L26.6645 51.3665C27.199 52.6846 27.8816 53.9135 28.6891 55.0273L27.5971 57.3452C28.221 58.1158 28.9 58.8309 29.6272 59.4829L31.7748 58.2499C32.7587 59.0245 33.829 59.6739 34.9667 60.1772L35.0712 62.7966C35.9893 63.1379 36.9414 63.3976 37.9205 63.5677Z" fill="white"/>
</svg>
